<svg width="500" height="133" viewBox="0 0 500 133" fill="none" xmlns="http://www.w3.org/2000/svg">
<path d="M62.8693 31.8981C71.3245 31.8981 78.8735 34.0123 85.5169 38.2392C92.2204 42.4055 97.4746 48.3234 101.279 55.9911C104.963 63.3583 106.805 72.0244 106.805 81.9877C106.805 91.6488 104.963 100.284 101.279 107.893C97.5954 115.5 92.4016 121.449 85.6979 125.736C78.934 130.084 71.3245 132.257 62.8693 132.257C56.7092 132.257 50.9115 130.989 45.4761 128.453C40.0406 125.916 35.3904 122.354 31.5253 117.765V129.954H0V0.287598H31.5253V46.3007C35.3904 41.7111 40.0406 38.1787 45.4761 35.7034C50.9115 33.166 56.7092 31.8981 62.8693 31.8981ZM53.448 106.081C57.9171 106.081 61.903 105.055 65.4059 103.001C68.9086 100.947 71.6566 98.0797 73.6495 94.397C75.6425 90.773 76.639 86.636 76.639 81.9877C76.639 77.4586 75.6425 73.3527 73.6495 69.6683C71.6566 65.9856 68.9086 63.1164 65.4059 61.0643C61.903 59.0105 57.9171 57.9845 53.448 57.9845C49.2205 57.9845 45.4459 59.0105 42.1243 61.0643C38.8026 63.0577 36.2057 65.8646 34.3335 69.4869C32.4614 73.1713 31.5253 77.3377 31.5253 81.9877C31.5253 86.636 32.4614 90.8041 34.3335 94.4868C36.2057 98.1091 38.8026 100.947 42.1243 103.001C45.4459 105.055 49.2205 106.081 53.448 106.081Z" fill="#1C1C1C"/>
<path d="M111.122 129.954V0.287598H142.647V129.954H111.122Z" fill="#1C1C1C"/>
<path d="M151.581 129.954V34.0464H182.926V129.954H151.581Z" fill="#1C1C1C"/>
<path d="M251.018 31.897C257.722 31.897 263.762 33.4671 269.136 36.6075C274.511 39.6873 278.738 44.0351 281.818 49.6507C284.779 55.3267 286.257 61.7576 286.257 68.9434V129.953H256.183V76.0083C256.183 72.5052 255.488 69.396 254.098 66.6789C252.769 63.9013 250.867 61.7576 248.39 60.2479C245.976 58.7382 243.138 57.9834 239.876 57.9834C236.796 57.9834 233.957 58.7382 231.361 60.2479C228.763 61.6972 226.74 63.6905 225.291 66.2263C223.781 68.6411 223.026 71.4792 223.026 74.7404L222.845 129.953H191.5V34.0717H222.845V45.0317C225.804 40.9258 229.759 37.725 234.712 35.4294C239.664 33.075 245.1 31.897 251.018 31.897Z" fill="#1C1C1C"/>
<path d="M355.525 76.0094L391.089 129.954H355.489L334.69 96.0259L325.087 107.167V129.954H293.561V0.287598H325.087V71.9328L355.395 34.0227L390.972 34.0469L355.525 76.0094Z" fill="#1C1C1C"/>
<path d="M151.565 0.296875H183.013V24.839H151.565V0.296875Z" fill="#1C1C1C"/>
<path d="M395.881 129.961V34.0464H427.329V129.961H395.881Z" fill="#0C831F"/>
<path d="M493.75 102.622L500 122.819C497.162 125.538 493.569 127.741 489.22 129.432C484.932 131.123 480.735 131.969 476.629 131.969C470.709 131.969 465.425 130.67 460.775 128.074C456.125 125.417 452.501 121.733 449.903 117.022C447.307 112.435 446.008 107.151 446.008 101.172V58.854H433.418V34.0458H446.008V0.296875H476.085V34.0458H495.923V58.854H476.085V95.3753C476.085 98.4552 476.9 100.962 478.531 102.893C480.161 104.826 482.245 105.791 484.782 105.791C486.592 105.791 488.283 105.52 489.854 104.976C491.424 104.434 492.723 103.648 493.75 102.622Z" fill="#0C831F"/>
<path d="M395.881 0.296875H427.329V24.839H395.881V0.296875Z" fill="#0C831F"/>
</svg>
