<svg id="Layer_1" data-name="Layer 1" xmlns="http://www.w3.org/2000/svg" width="355.14" height="479.65" viewBox="0 0 355.14 479.65">
  <title>cred-logo-freelogovectors.net</title>
  <g>
    <path d="M115.6,10.18H384.27c3.05,2.81,5.92,6,5.13,10.49.13,74.53-.11,149.06.13,223.56-.45,4,.63,8.62-1.89,12.07-4.66,3.71-10.08,6.24-15.26,9.13-39.07,21.44-78,43.19-117,64.77-4.74,3.81-10.23.65-14.68-1.85-35.88-20.17-72-40.06-107.94-60.08-7.15-4.16-14.91-7.42-21.28-12.81a27.06,27.06,0,0,1-1-8.52q.23-113.1,0-226.16C109.92,16.36,112.39,12.89,115.6,10.18Zm11.18,16.46c-.24,73.11,0,146.24-.13,219.35,41,23.07,82.1,45.85,123.22,68.68q61.56-34.37,123.35-68.29c.21-73.26,0-146.52.1-219.79Q250.05,26.67,126.78,26.64Z" transform="translate(-72.43 -10.18)"/>
    <path d="M189.21,51c49.61,0,99.25-.08,148.86,0,5.42-1,11.05,3.14,10.53,8.87.18,23.68,0,47.33,0,71-5.39,0-10.76,0-16.13,0q0-31.73,0-63.5c-47.8.11-95.62,0-143.42,0C189.13,61.9,189.15,56.42,189.21,51Z" transform="translate(-72.43 -10.18)"/>
    <path d="M150.75,102.22c-.48-4.92,2.81-10.55,8.31-10.07,43.67-.21,87.31,0,131-.08,0,5.47.08,11,.1,16.47-41-.11-82,0-123-.06-.08,37.91,0,75.79,0,113.7,27.47,15.6,55.14,30.86,82.53,46.64C277.25,253.17,305,237.7,332.52,222c.06-16.79,0-33.57.06-50.35,5.34,0,10.68,0,16,0,0,18.15.19,36.33,0,54.51.92,5.26-4.19,7.84-8,10.1-28.67,16-57.21,32.3-85.89,48.4-3.5,2.69-7.89,1.5-11.28-.68-29.13-16.55-58.43-32.83-87.55-49.41-5.84-2.13-5.21-8.91-5.29-14C150.8,181.14,150.56,141.68,150.75,102.22Z" transform="translate(-72.43 -10.18)"/>
    <path d="M191.44,151.21l16.13.07c.08,15.66,0,31.34.05,47,14.34,7.74,28.23,16.29,42.67,23.86,15.18-9.28,30.88-17.65,46.33-26.46,2.52,4.79,5.1,9.55,7.7,14.28-15.68,9-31.46,17.79-47.16,26.76-3.29,1.45-7.29,4.65-10.84,2.05-15.89-8.52-31.26-17.94-47.09-26.54-2.95-2-7.37-3.48-7.5-7.66C191,186.82,191.73,169,191.44,151.21Z" transform="translate(-72.43 -10.18)"/>
    <path d="M96.69,402.35c20-10.68,46.51-3.6,59.08,15.18q-8.4,5.18-17,10.08a27,27,0,0,0-31.46-8.53c-20.36,7.71-20,42.54,1,49.22,11.08,4.37,23.13-.26,30.7-8.81q8.41,5,16.71,10.18c-11.6,16.47-33.6,24.49-52.83,17.57-16.68-4.91-27.83-20.62-30.54-37.32V437.18C74.9,422.77,83,408.69,96.69,402.35Z" transform="translate(-72.43 -10.18)"/>
    <path d="M178,397.57c13.1.08,26.2-.27,39.27.05,18.34,1,32.54,20.83,27.44,38.54-1.92,8.73-8.66,15-15.68,20,6.52,11.08,12.76,22.31,19.2,33.41-7.28,0-14.54.05-21.83.26-6.39-9.91-11.73-20.41-17.76-30.54q-4.81.08-9.63.19,0,15.06,0,30.12c-7,0-14,0-21,.08C178,459,177.92,428.27,178,397.57Zm21,19.78c0,7.86,0,15.76,0,23.65,6.42-.21,13,.66,19.31-.9,9.1-4.18,8.68-20.23-1.56-22.54C210.88,416.9,205,417.27,199,417.35Z" transform="translate(-72.43 -10.18)"/>
    <path d="M268.52,397.49c19.6.1,39.2.05,58.77,0,0,6.55,0,13.13-.05,19.71-12.71.1-25.42,0-38.1.13v15.34c11.18.05,22.36,0,33.54.05,0,6.65,0,13.34-.05,20-11.15,0-22.31,0-33.46.08,0,5.55,0,11.12,0,16.7,12.71,0,25.42,0,38.12,0V489.3c-19.6,0-39.22,0-58.82,0C268.44,458.68,268.28,428.08,268.52,397.49Z" transform="translate(-72.43 -10.18)"/>
    <path d="M350.36,397.57c18.39,1.26,38.51-4,55.32,5.78,12.81,6.9,19.89,20.92,21.89,34.89v9.62c-1.63,18.37-14.47,35.89-32.91,40-14.6,2.84-29.6.79-44.35,1.37C350.31,458.7,350.23,428.13,350.36,397.57Zm20.65,72c9.18-.16,19.6,1.66,27.31-4.58,12-10.31,12.68-31.62.94-42.38-7.7-6.94-18.73-5.21-28.2-5.34C371,434.68,371,452.1,371,469.54Z" transform="translate(-72.43 -10.18)"/>
  </g>
</svg>
